<?xml version="1.0" encoding="UTF-8" standalone="no"?>
<!-- Created with Inkscape (http://www.inkscape.org/) -->

<svg
   width="32"
   height="32"
   viewBox="0 0 8.4666665 8.4666666"
   version="1.1"
   id="svg679"
   xml:space="preserve"
   inkscape:version="1.2.2 (732a01da63, 2022-12-09)"
   sodipodi:docname="tab1.svg"
   xmlns:inkscape="http://www.inkscape.org/namespaces/inkscape"
   xmlns:sodipodi="http://sodipodi.sourceforge.net/DTD/sodipodi-0.dtd"
   xmlns="http://www.w3.org/2000/svg"
   xmlns:svg="http://www.w3.org/2000/svg"><sodipodi:namedview
     id="namedview681"
     pagecolor="#ffffff"
     bordercolor="#000000"
     borderopacity="0.25"
     inkscape:showpageshadow="2"
     inkscape:pageopacity="0.0"
     inkscape:pagecheckerboard="0"
     inkscape:deskcolor="#d1d1d1"
     inkscape:document-units="mm"
     showgrid="false"
     inkscape:zoom="12.072839"
     inkscape:cx="14.164025"
     inkscape:cy="12.673075"
     inkscape:window-width="1920"
     inkscape:window-height="1027"
     inkscape:window-x="-8"
     inkscape:window-y="-8"
     inkscape:window-maximized="1"
     inkscape:current-layer="layer1" /><defs
     id="defs676"><linearGradient
       id="linear-gradient"
       x1="0.5"
       x2="0.5"
       y2="0.991"
       gradientUnits="objectBoundingBox"><stop
         offset="0"
         stop-color="#00ffd0"
         id="stop935" /><stop
         offset="1"
         stop-color="#0b9d71"
         id="stop937" /></linearGradient><clipPath
       id="clip-Stat"><rect
         width="48"
         height="48"
         id="rect940" /></clipPath><linearGradient
       id="linear-gradient-8"
       x1="0.5"
       x2="0.5"
       y2="0.991"
       gradientUnits="objectBoundingBox"><stop
         offset="0"
         stop-color="#00ffd0"
         id="stop1066" /><stop
         offset="1"
         stop-color="#0b9d71"
         id="stop1068" /></linearGradient><clipPath
       id="clip-Stat-3"><rect
         width="48"
         height="48"
         id="rect1071" /></clipPath></defs><g
     inkscape:label="Layer 1"
     inkscape:groupmode="layer"
     id="layer1"><g
       style="fill:#000000"
       id="g809"
       transform="scale(0.26458333)"><path
         id="touch--gesture_1_"
         d="M 31.36,2 V 22 H 30.64 V 2.36 H 1.36 V 24.64 H 12 v 0.721 H 1 c -0.199,0 -0.36,-0.161 -0.36,-0.36 V 2 C 0.64,1.801 0.801,1.64 1,1.64 h 30 c 0.199,0 0.36,0.161 0.36,0.36 z M 27.5,23.14 c -0.455,0 -0.867,0.171 -1.191,0.443 -0.19,-0.825 -0.928,-1.443 -1.809,-1.443 -0.52,0 -0.99,0.216 -1.327,0.561 -0.3,-0.625 -0.934,-1.061 -1.673,-1.061 -0.431,0 -0.824,0.154 -1.14,0.401 V 16.5 c 0,-1.025 -0.835,-1.86 -1.86,-1.86 -1.025,0 -1.86,0.834 -1.86,1.86 v 9.541 c -0.316,-0.248 -0.709,-0.402 -1.14,-0.402 -1.025,0 -1.86,0.835 -1.86,1.86 V 30 h 0.72 v -2.5 c 0,-0.629 0.512,-1.14 1.14,-1.14 0.628,0 1.14,0.511 1.14,1.14 v 0.5 2 h 0.72 v -2 -0.5 -11 c 0,-0.628 0.511,-1.14 1.14,-1.14 0.629,0 1.14,0.512 1.14,1.14 V 27 c 0,0.199 0.161,0.36 0.36,0.36 0.199,0 0.36,-0.161 0.36,-0.36 v -3.5 c 0,-0.629 0.511,-1.14 1.14,-1.14 0.629,0 1.14,0.511 1.14,1.14 V 27 c 0,0.199 0.161,0.36 0.36,0.36 0.199,0 0.36,-0.161 0.36,-0.36 v -3 c 0,-0.629 0.511,-1.14 1.14,-1.14 0.629,0 1.14,0.511 1.14,1.14 v 3 c 0,0.199 0.161,0.36 0.36,0.36 0.199,0 0.36,-0.161 0.36,-0.36 v -2 c 0,-0.629 0.511,-1.14 1.14,-1.14 0.629,0 1.14,0.511 1.14,1.14 v 5 h 0.721 V 25 C 29.36,23.975 28.525,23.14 27.5,23.14 Z" /><rect
         id="_Transparent_Rectangle"
         style="fill:none"
         width="32"
         height="32"
         x="0"
         y="0" /></g><path
       style="fill:#ffffff;stroke-width:0.00560599"
       d="m 2.4300426,4.0229506 c -0.7666304,0 -1.3902855,-0.6236552 -1.3902855,-1.3902856 0,-0.7666303 0.6236551,-1.3902855 1.3902855,-1.3902855 0.7666303,0 1.3902855,0.6236552 1.3902855,1.3902855 0,0.7666304 -0.6236552,1.3902856 -1.3902855,1.3902856 z"
       id="path1127" /><path
       style="fill:#e2e2e2;stroke-width:0.00560599"
       d="m 2.4300426,1.2872274 c 0.7418743,0 1.3454376,0.6035633 1.3454376,1.3454376 0,0.7418743 -0.6035633,1.3454376 -1.3454376,1.3454376 -0.7418743,0 -1.3454376,-0.6035633 -1.3454376,-1.3454376 0,-0.7418743 0.6035633,-1.3454376 1.3454376,-1.3454376 m 0,-0.089696 c -0.7925973,0 -1.43513345,0.6425361 -1.43513345,1.4351334 0,0.7925973 0.64253615,1.4351335 1.43513345,1.4351335 0.7925973,0 1.4351334,-0.6425362 1.4351334,-1.4351335 0,-0.7925973 -0.6425361,-1.4351334 -1.4351334,-1.4351334 z"
       id="path1129" /><path
       style="fill:#aa0000;stroke-width:0.00560599;opacity:0.78"
       d="M 3.1753253,1.8874272 C 2.9843629,1.6962853 2.7204777,1.5780214 2.4289214,1.5780214 v 1.0558097 h 1.0550473 c 0,-2.691e-4 0,-4.933e-4 0,-7.624e-4 0,-0.2911527 -0.11795,-0.5547688 -0.3086434,-0.7456415 z"
       id="path1131" /><path
       style="fill:#e2e2e2;stroke-width:0.00560599"
       d="m 3.4839687,2.6322614 c 0,-2.691e-4 0,-4.933e-4 0,-7.624e-4 H 2.4311638 V 1.5780214 c -0.2915115,0 -0.5554415,0.1182639 -0.7464039,0.3094058 C 1.4943804,2.077986 1.3765649,2.3409742 1.3761613,2.631499 v 0 c 0,2.691e-4 0,4.933e-4 0,7.624e-4 0,1.346e-4 0,2.691e-4 0,4.036e-4 0,1.346e-4 0,2.691e-4 0,4.037e-4 0,2.691e-4 0,4.933e-4 0,7.624e-4 v 0 c 4.036e-4,0.2905248 0.1182191,0.553513 0.3085986,0.7440718 0.1904691,0.1906485 0.453547,0.3087331 0.7442063,0.309361 v 4.48e-5 c 3.588e-4,0 7.176e-4,-4.48e-5 0.00112,-4.48e-5 3.588e-4,0 7.176e-4,4.48e-5 0.00112,4.48e-5 v -4.48e-5 C 2.721868,3.6866809 2.9849459,3.5685963 3.175415,3.3779029 3.3660187,3.1870302 3.4839687,2.9234141 3.4839687,2.6322614 Z"
       id="path1133" /></g></svg>
