<?xml version="1.0" encoding="UTF-8" standalone="no"?>
<!-- Created with Inkscape (http://www.inkscape.org/) -->

<svg
   width="32"
   height="32"
   viewBox="0 0 8.4666665 8.4666666"
   version="1.1"
   id="svg679"
   xml:space="preserve"
   inkscape:version="1.2.2 (732a01da63, 2022-12-09)"
   sodipodi:docname="tab2.svg"
   xmlns:inkscape="http://www.inkscape.org/namespaces/inkscape"
   xmlns:sodipodi="http://sodipodi.sourceforge.net/DTD/sodipodi-0.dtd"
   xmlns="http://www.w3.org/2000/svg"
   xmlns:svg="http://www.w3.org/2000/svg"><sodipodi:namedview
     id="namedview681"
     pagecolor="#ffffff"
     bordercolor="#000000"
     borderopacity="0.25"
     inkscape:showpageshadow="2"
     inkscape:pageopacity="0.0"
     inkscape:pagecheckerboard="0"
     inkscape:deskcolor="#d1d1d1"
     inkscape:document-units="mm"
     showgrid="false"
     inkscape:zoom="6.0364197"
     inkscape:cx="39.758667"
     inkscape:cy="33.629205"
     inkscape:window-width="1920"
     inkscape:window-height="1027"
     inkscape:window-x="-8"
     inkscape:window-y="-8"
     inkscape:window-maximized="1"
     inkscape:current-layer="layer1" /><defs
     id="defs676"><linearGradient
       id="linear-gradient"
       x1="0.5"
       x2="0.5"
       y2="0.991"
       gradientUnits="objectBoundingBox"><stop
         offset="0"
         stop-color="#00ffd0"
         id="stop935" /><stop
         offset="1"
         stop-color="#0b9d71"
         id="stop937" /></linearGradient><clipPath
       id="clip-Stat"><rect
         width="48"
         height="48"
         id="rect940" /></clipPath><linearGradient
       id="linear-gradient-8"
       x1="0.5"
       x2="0.5"
       y2="0.991"
       gradientUnits="objectBoundingBox"><stop
         offset="0"
         stop-color="#00ffd0"
         id="stop1066" /><stop
         offset="1"
         stop-color="#0b9d71"
         id="stop1068" /></linearGradient><clipPath
       id="clip-Stat-3"><rect
         width="48"
         height="48"
         id="rect1071" /></clipPath></defs><g
     inkscape:label="Layer 1"
     inkscape:groupmode="layer"
     id="layer1"><g
       id="g1217"
       transform="matrix(1.3970398,0,0,1.3970398,-0.6580056,-0.65079238)"><path
         style="fill:#ffffff;stroke-width:0.00560599"
         d="m 2.4300426,4.0229506 c -0.7666304,0 -1.3902855,-0.6236552 -1.3902855,-1.3902856 0,-0.7666303 0.6236551,-1.3902855 1.3902855,-1.3902855 0.7666303,0 1.3902855,0.6236552 1.3902855,1.3902855 0,0.7666304 -0.6236552,1.3902856 -1.3902855,1.3902856 z"
         id="path1127" /><path
         style="fill:#e2e2e2;stroke-width:0.00560599"
         d="m 2.4300426,1.2872274 c 0.7418743,0 1.3454376,0.6035633 1.3454376,1.3454376 0,0.7418743 -0.6035633,1.3454376 -1.3454376,1.3454376 -0.7418743,0 -1.3454376,-0.6035633 -1.3454376,-1.3454376 0,-0.7418743 0.6035633,-1.3454376 1.3454376,-1.3454376 m 0,-0.089696 c -0.7925973,0 -1.43513345,0.6425361 -1.43513345,1.4351334 0,0.7925973 0.64253615,1.4351335 1.43513345,1.4351335 0.7925973,0 1.4351334,-0.6425362 1.4351334,-1.4351335 0,-0.7925973 -0.6425361,-1.4351334 -1.4351334,-1.4351334 z"
         id="path1129" /><path
         style="opacity:0.78;fill:#aa0000;stroke-width:0.00560599"
         d="M 3.1753253,1.8874272 C 2.9843629,1.6962853 2.7204777,1.5780214 2.4289214,1.5780214 v 1.0558097 h 1.0550473 c 0,-2.691e-4 0,-4.933e-4 0,-7.624e-4 0,-0.2911527 -0.11795,-0.5547688 -0.3086434,-0.7456415 z"
         id="path1131" /><path
         style="fill:#e2e2e2;stroke-width:0.00560599"
         d="m 3.4839687,2.6322614 c 0,-2.691e-4 0,-4.933e-4 0,-7.624e-4 H 2.4311638 V 1.5780214 c -0.2915115,0 -0.5554415,0.1182639 -0.7464039,0.3094058 C 1.4943804,2.077986 1.3765649,2.3409742 1.3761613,2.631499 v 0 c 0,2.691e-4 0,4.933e-4 0,7.624e-4 0,1.346e-4 0,2.691e-4 0,4.036e-4 0,1.346e-4 0,2.691e-4 0,4.037e-4 0,2.691e-4 0,4.933e-4 0,7.624e-4 v 0 c 4.036e-4,0.2905248 0.1182191,0.553513 0.3085986,0.7440718 0.1904691,0.1906485 0.453547,0.3087331 0.7442063,0.309361 v 4.48e-5 c 3.588e-4,0 7.176e-4,-4.48e-5 0.00112,-4.48e-5 3.588e-4,0 7.176e-4,4.48e-5 0.00112,4.48e-5 v -4.48e-5 C 2.721868,3.6866809 2.9849459,3.5685963 3.175415,3.3779029 3.3660187,3.1870302 3.4839687,2.9234141 3.4839687,2.6322614 Z"
         id="path1133" /></g><path
       d="M 2.1009207,2.341992 H 8.813041 V 9.0541123 H 2.1009207 Z"
       fill="none"
       id="path1173"
       style="stroke-width:0.139836" /><path
       d="M 7.0273373,4.9682489 C 7.3435062,4.770521 7.5545185,4.4203721 7.5545185,4.0200221 c 0,-0.6177948 -0.500892,-1.1186867 -1.1186868,-1.1186867 -0.6177947,0 -1.1186867,0.5008919 -1.1186867,1.1186867 0,0.40035 0.2110123,0.7504989 0.5271811,0.9482268 C 5.6453397,5.0433408 5.4648117,5.1547899 5.3100134,5.2950453 5.2486255,4.7352824 4.774582,4.2996938 4.1984583,4.2996938 c -0.6177947,0 -1.1186867,0.5008919 -1.1186867,1.1186867 0,0.40035 0.2110123,0.7504989 0.5271811,0.9482268 -0.634575,0.2392591 -1.0865245,0.8503418 -1.0865245,1.5688183 h 3.3560602 c 0,-0.5840943 -0.2984097,-1.0978512 -0.7509185,-1.3983584 h 2.9882919 c 0,-0.7184765 -0.4519494,-1.3295592 -1.0865245,-1.5688183 z M 6.4358317,5.1387088 c 0.1650063,0 0.3210631,-0.036637 0.4620177,-0.1006818 L 6.4358317,5.6980522 5.9738141,5.038027 C 6.1147687,5.102072 6.2708254,5.1387088 6.4358317,5.1387088 Z M 4.1984583,6.5370672 c 0.1650063,0 0.3210631,-0.036637 0.4620176,-0.1006818 L 4.1984583,7.0964106 3.7364407,6.4363854 c 0.1409545,0.064045 0.2970113,0.1006818 0.4620176,0.1006818 z"
       id="path1175"
       style="stroke-width:0.139836;fill:#1a1a1a;opacity:0.58" /></g></svg>
