<?xml version="1.0" encoding="UTF-8" standalone="no"?>
<!-- Created with Inkscape (http://www.inkscape.org/) -->

<svg
   width="32"
   height="32"
   viewBox="0 0 8.4666665 8.4666666"
   version="1.1"
   id="svg679"
   xml:space="preserve"
   inkscape:version="1.2.2 (732a01da63, 2022-12-09)"
   sodipodi:docname="tab3.svg"
   xmlns:inkscape="http://www.inkscape.org/namespaces/inkscape"
   xmlns:sodipodi="http://sodipodi.sourceforge.net/DTD/sodipodi-0.dtd"
   xmlns="http://www.w3.org/2000/svg"
   xmlns:svg="http://www.w3.org/2000/svg"><sodipodi:namedview
     id="namedview681"
     pagecolor="#ffffff"
     bordercolor="#000000"
     borderopacity="0.25"
     inkscape:showpageshadow="2"
     inkscape:pageopacity="0.0"
     inkscape:pagecheckerboard="0"
     inkscape:deskcolor="#d1d1d1"
     inkscape:document-units="mm"
     showgrid="false"
     inkscape:zoom="4.2683933"
     inkscape:cx="-25.30226"
     inkscape:cy="-34.673468"
     inkscape:window-width="1920"
     inkscape:window-height="1027"
     inkscape:window-x="-8"
     inkscape:window-y="-8"
     inkscape:window-maximized="1"
     inkscape:current-layer="layer1" /><defs
     id="defs676"><linearGradient
       id="linear-gradient"
       x1="0.5"
       x2="0.5"
       y2="0.991"
       gradientUnits="objectBoundingBox"><stop
         offset="0"
         stop-color="#00ffd0"
         id="stop935" /><stop
         offset="1"
         stop-color="#0b9d71"
         id="stop937" /></linearGradient><clipPath
       id="clip-Stat"><rect
         width="48"
         height="48"
         id="rect940" /></clipPath><linearGradient
       id="linear-gradient-8"
       x1="0.5"
       x2="0.5"
       y2="0.991"
       gradientUnits="objectBoundingBox"><stop
         offset="0"
         stop-color="#00ffd0"
         id="stop1066" /><stop
         offset="1"
         stop-color="#0b9d71"
         id="stop1068" /></linearGradient><clipPath
       id="clip-Stat-3"><rect
         width="48"
         height="48"
         id="rect1071" /></clipPath></defs><g
     inkscape:label="Layer 1"
     inkscape:groupmode="layer"
     id="layer1"><path
       d="M 2.1009207,2.341992 H 8.813041 V 9.0541123 H 2.1009207 Z"
       fill="none"
       id="path1173"
       style="stroke-width:0.139836" /><g
       fill="none"
       fill-rule="evenodd"
       id="g1265"
       transform="matrix(0.21109832,0,0,0.21109832,0.85576021,0.85576021)"><circle
         cx="16"
         cy="16"
         fill="#18578c"
         r="16"
         id="circle1261" /><path
         d="m 11.633,20.336 c 0.662,0.675 0.662,1.769 0,2.444 -0.662,0.675 -1.736,0.677 -2.4,0.003 -0.32,-0.324 -0.5,-0.765 -0.5,-1.225 0,-0.46 0.18,-0.9 0.5,-1.225 a 1.676,1.676 0 0 1 2.4,0.003 z M 22.696,8.726 a 1.73,1.73 0 0 1 1.048,1.599 c 0,0.7 -0.414,1.33 -1.048,1.598 -0.634,0.268 -1.365,0.12 -1.85,-0.375 a 1.745,1.745 0 0 1 -0.498,-1.223 c 0,-0.46 0.179,-0.9 0.498,-1.223 a 1.675,1.675 0 0 1 1.85,-0.375 z M 11.41,19.003 13.047,17.327 a 3.263,3.263 0 0 0 1.796,1.83 l -1.641,1.671 z m 9.697,-6.137 -1.641,1.672 a 3.226,3.226 0 0 0 -0.71,-1.098 3.227,3.227 0 0 0 -1.081,-0.727 l 1.64,-1.672 z m -0.687,7.942 a 1.698,1.698 0 0 1 1.569,-1.067 c 0.687,0 1.306,0.421 1.569,1.067 0.262,0.647 0.117,1.39 -0.368,1.885 a 1.68,1.68 0 0 1 -1.201,0.508 1.68,1.68 0 0 1 -1.2,-0.508 1.753,1.753 0 0 1 -0.369,-1.885 z M 9.035,9.51 a 1.698,1.698 0 0 1 1.569,-1.068 c 0.687,0 1.306,0.421 1.569,1.068 0.262,0.646 0.117,1.39 -0.368,1.885 A 1.68,1.68 0 0 1 10.604,11.902 1.68,1.68 0 0 1 9.404,11.395 1.753,1.753 0 0 1 9.035,9.51 Z M 19.18,20.754 17.535,19.087 a 3.263,3.263 0 0 0 1.796,-1.83 l 1.64,1.672 z m -5.841,-9.81 1.64,1.673 a 3.17,3.17 0 0 0 -1.077,0.723 c -0.308,0.314 -0.551,0.69 -0.714,1.102 l -1.64,-1.672 z m 2.942,-1.481 c -0.939,0 -1.7,-0.775 -1.7,-1.732 0,-0.957 0.761,-1.731 1.7,-1.731 0.45,0 0.883,0.182 1.202,0.507 0.319,0.325 0.498,0.765 0.497,1.224 0,0.957 -0.76,1.732 -1.7,1.732 z m 1.7,14.806 c 0,0.956 -0.762,1.731 -1.7,1.731 -0.938,0 -1.7,-0.775 -1.7,-1.731 0,-0.956 0.761,-1.732 1.7,-1.732 0.45,0 0.883,0.182 1.202,0.507 0.319,0.325 0.498,0.765 0.497,1.225 z m -1.083,-13.9 v 2.144 a 3.075,3.075 0 0 0 -1.07,0 v -2.144 z m 0,9.212 v 2.145 h -1.07 V 19.58 c 0.354,0.063 0.716,0.063 1.07,0 z m 5.332,-3.392 a 1.755,1.755 0 0 1 0.369,-1.887 1.677,1.677 0 0 1 1.852,-0.376 c 0.635,0.268 1.049,0.9 1.049,1.6 0,0.46 -0.179,0.9 -0.497,1.225 A 1.683,1.683 0 0 1 22.23,16.189 Z M 6.5,15.82 c 0,-0.956 0.76,-1.731 1.7,-1.731 0.938,0 1.699,0.774 1.7,1.73 0,0.46 -0.18,0.9 -0.498,1.225 A 1.683,1.683 0 0 1 8.2,17.551 c -0.939,0 -1.7,-0.775 -1.7,-1.73 z m 15.083,0.545 -2.104,-0.002 a 3.25,3.25 0 0 0 0,-1.09 h 2.104 z m -8.643,0 h -2.105 v -1.09 h 2.105 a 3.25,3.25 0 0 0 0,1.09 z m 3.29,2.037 c -1.331,0 -2.41,-1.099 -2.41,-2.454 0,-1.355 1.079,-2.455 2.41,-2.455 1.33,0 2.409,1.1 2.41,2.455 0,1.355 -1.08,2.454 -2.41,2.454 z"
         fill="#ffffff"
         fill-rule="nonzero"
         id="path1263" /></g></g></svg>
